<svg width="413" height="216" viewBox="0 0 413 216" fill="none" xmlns="http://www.w3.org/2000/svg">
<path fill-rule="evenodd" clip-rule="evenodd" d="M42.1668 0C40.0497 0 38.3335 1.71625 38.3335 3.83335V19.6474C38.3335 21.7646 40.0497 23.4808 42.1668 23.4808C44.2839 23.4808 46.0002 21.7645 46.0002 19.6474V3.83335C46.0002 1.71625 44.2839 0 42.1668 0ZM75.9003 0C73.7832 0 72.0669 1.71625 72.0669 3.83335V19.6474C72.0669 21.7646 73.7832 23.4808 75.9003 23.4808C78.0174 23.4808 79.7336 21.7645 79.7336 19.6474V3.83335C79.7336 1.71625 78.0174 0 75.9003 0ZM37.5668 7.82693H32.1722C14.404 7.82693 0 22.2309 0 39.9991V75.5897C0 106.004 23.0001 131.046 52.5558 134.272C52.4326 135.019 52.3685 135.786 52.3685 136.567V178.866C52.3685 199.375 68.9939 216 89.5025 216C110.011 216 126.637 199.375 126.637 178.866V148.688H115.637V178.866C115.637 193.299 103.936 205 89.5025 205C75.0691 205 63.3685 193.299 63.3685 178.866V136.567C63.3685 135.711 63.7276 134.938 64.3035 134.391C94.438 131.725 118.067 106.417 118.067 75.5897V39.9991C118.067 22.2309 103.663 7.82693 85.8949 7.82693H81.267V19.8269H85.8949C97.0357 19.8269 106.067 28.8583 106.067 39.9991V75.5897C106.067 101.566 85.0095 122.623 59.0336 122.623C33.0576 122.623 12 101.566 12 75.5897V39.9991C12 28.8583 21.0314 19.8269 32.1722 19.8269H37.5668V7.82693ZM158.058 111.567L154.119 111.695C133.733 112.361 117.443 128.486 116.172 148.449H127.199C128.433 134.405 140.01 123.162 154.441 122.69L158.058 122.572V111.567Z" fill="#0E8B40"/>
<path d="M197.761 119.553C197.761 133.391 187.601 143.693 176.149 143.693C164.696 143.693 154.536 133.391 154.536 119.553C154.536 105.716 164.696 95.414 176.149 95.414C187.601 95.414 197.761 105.716 197.761 119.553Z" stroke="#D10000" stroke-width="12"/>
<path d="M146.544 185.804V187.082H144.745V197H143.425C143.082 196.28 142.608 195.62 142.002 195.02C141.408 194.408 140.723 193.892 139.946 193.472C139.169 193.052 138.34 192.77 137.461 192.626L136.792 190.898C137.889 190.202 139.02 189.572 140.186 189.008C141.363 188.444 142.574 187.964 143.819 187.568L143.425 188.324V187.082H135.987V185.804H146.544ZM143.425 188.468L143.785 188.972C142.916 189.272 142.002 189.644 141.043 190.088C140.083 190.52 139.197 191 138.386 191.528C139.003 191.672 139.66 191.918 140.357 192.266C141.054 192.614 141.7 193.052 142.294 193.58C142.888 194.108 143.345 194.72 143.665 195.416H143.511C143.488 195.14 143.465 194.864 143.442 194.588C143.431 194.312 143.425 193.982 143.425 193.598V188.468Z" fill="#0E8B40"/>
<path d="M151.098 185.804V187.082H149.298V197H147.979V188.558C147.842 188.15 147.636 187.802 147.362 187.514C147.099 187.226 146.756 187.082 146.333 187.082H146.196V185.804H146.453C146.728 185.804 147.013 185.9 147.31 186.092C147.607 186.272 147.847 186.554 148.03 186.938C148.019 186.878 148.007 186.74 147.996 186.524C147.984 186.308 147.979 186.122 147.979 185.966V184.616H148.904L149.281 185.804H151.098Z" fill="#0E8B40"/>
<path d="M153.028 191.348C153.748 191.804 154.428 192.35 155.068 192.986C155.719 193.61 156.307 194.282 156.833 195.002C157.37 195.722 157.821 196.436 158.187 197.144L157.073 197.738C156.605 196.982 156.136 196.304 155.668 195.704C155.211 195.092 154.702 194.528 154.142 194.012C153.594 193.496 152.937 192.992 152.171 192.5L153.028 191.348ZM152.257 188.252C152.257 187.76 152.36 187.334 152.566 186.974C152.783 186.602 153.074 186.314 153.44 186.11C153.805 185.906 154.217 185.804 154.674 185.804C155.131 185.804 155.542 185.906 155.908 186.11C156.273 186.314 156.559 186.602 156.765 186.974C156.982 187.334 157.09 187.76 157.09 188.252C157.09 188.744 156.982 189.176 156.765 189.548C156.559 189.92 156.273 190.208 155.908 190.412C155.542 190.616 155.131 190.718 154.674 190.718C154.217 190.718 153.805 190.616 153.44 190.412C153.074 190.208 152.783 189.926 152.566 189.566C152.36 189.194 152.257 188.756 152.257 188.252ZM153.44 188.252C153.44 188.66 153.554 188.978 153.782 189.206C154.022 189.434 154.319 189.548 154.674 189.548C155.039 189.548 155.336 189.434 155.565 189.206C155.793 188.966 155.908 188.648 155.908 188.252C155.908 187.844 155.793 187.532 155.565 187.316C155.336 187.088 155.039 186.974 154.674 186.974C154.319 186.974 154.022 187.094 153.782 187.334C153.554 187.562 153.44 187.868 153.44 188.252Z" fill="#0E8B40"/>
<path d="M171.135 185.804V187.082H169.335V197H168.016V190.97L168.119 191.438C167.867 191.054 167.599 190.748 167.313 190.52C167.039 190.292 166.736 190.178 166.405 190.178C166.233 190.178 166.056 190.214 165.873 190.286C165.702 190.346 165.553 190.466 165.428 190.646C165.314 190.826 165.256 191.102 165.256 191.474C165.256 191.606 165.256 191.726 165.256 191.834C165.268 191.93 165.279 192.026 165.291 192.122L164.177 192.212C164.131 191.72 164.005 191.306 163.8 190.97C163.594 190.622 163.343 190.358 163.045 190.178C162.748 189.998 162.428 189.908 162.086 189.908C161.777 189.908 161.514 189.974 161.297 190.106C161.08 190.226 160.915 190.394 160.8 190.61C160.686 190.814 160.629 191.048 160.629 191.312C160.629 191.792 160.795 192.2 161.126 192.536C161.469 192.872 161.949 193.154 162.566 193.382L162.103 194.714C161.554 194.534 161.063 194.288 160.629 193.976C160.195 193.664 159.852 193.28 159.601 192.824C159.349 192.368 159.224 191.84 159.224 191.24C159.224 190.7 159.349 190.238 159.601 189.854C159.852 189.458 160.189 189.152 160.612 188.936C161.035 188.72 161.497 188.612 162 188.612C162.606 188.612 163.125 188.732 163.56 188.972C163.994 189.2 164.394 189.572 164.759 190.088L164.502 190.106C164.617 189.71 164.834 189.41 165.154 189.206C165.485 188.99 165.828 188.882 166.182 188.882C166.593 188.882 166.947 188.966 167.244 189.134C167.542 189.302 167.867 189.542 168.221 189.854L168.067 190.124C168.056 189.872 168.044 189.62 168.033 189.368C168.021 189.116 168.016 188.858 168.016 188.594V187.082H158.264V185.804H171.135Z" fill="#0E8B40"/>
<path d="M175.702 185.804V187.082H173.902V197H172.582V188.558C172.445 188.15 172.239 187.802 171.965 187.514C171.702 187.226 171.36 187.082 170.937 187.082H170.8V185.804H171.057C171.331 185.804 171.617 185.9 171.914 186.092C172.211 186.272 172.451 186.554 172.634 186.938C172.622 186.878 172.611 186.74 172.599 186.524C172.588 186.308 172.582 186.122 172.582 185.966V184.616H173.508L173.885 185.804H175.702Z" fill="#0E8B40"/>
<path d="M181.625 185.804V187.082H181.282C180.928 187.166 180.545 187.352 180.134 187.64C179.723 187.916 179.334 188.282 178.969 188.738C178.603 189.182 178.3 189.704 178.06 190.304C177.832 190.904 177.717 191.564 177.717 192.284C177.717 193.148 177.837 193.838 178.077 194.354C178.329 194.858 178.637 195.218 179.003 195.434C179.369 195.65 179.734 195.758 180.1 195.758C180.385 195.758 180.625 195.728 180.82 195.668C181.014 195.608 181.237 195.5 181.488 195.344L182.088 196.442C181.791 196.682 181.465 196.85 181.111 196.946C180.757 197.042 180.403 197.09 180.048 197.09C179.329 197.09 178.689 196.892 178.129 196.496C177.58 196.1 177.146 195.548 176.826 194.84C176.518 194.12 176.364 193.28 176.364 192.32C176.364 191.336 176.541 190.448 176.895 189.656C177.249 188.852 177.723 188.174 178.317 187.622C178.923 187.07 179.591 186.668 180.323 186.416L179.226 187.01C179.02 187.034 178.797 187.052 178.557 187.064C178.317 187.076 178.049 187.082 177.752 187.082H175.352V185.804H181.625Z" fill="#0E8B40"/>
<path d="M191.955 185.804V187.082H184.174V192.446L183.934 192.086C184.391 191.546 184.911 191.042 185.493 190.574C186.076 190.106 186.71 189.68 187.396 189.296C188.081 188.9 188.813 188.552 189.59 188.252L190.704 189.404C190.486 189.824 190.309 190.232 190.172 190.628C190.047 191.024 189.949 191.438 189.881 191.87C189.824 192.302 189.795 192.782 189.795 193.31C189.795 193.898 189.841 194.462 189.932 195.002C190.024 195.542 190.178 196.148 190.395 196.82L189.11 197.126C188.904 196.43 188.744 195.752 188.63 195.092C188.516 194.42 188.458 193.724 188.458 193.004C188.458 192.512 188.493 192.05 188.561 191.618C188.63 191.186 188.721 190.802 188.835 190.466C188.961 190.118 189.087 189.836 189.213 189.62L189.418 189.71C188.767 189.986 188.133 190.322 187.516 190.718C186.899 191.114 186.293 191.57 185.699 192.086C185.105 192.602 184.494 193.19 183.865 193.85L182.854 193.13V187.082H181.277V185.804H191.955Z" fill="#0E8B40"/>
<path d="M203.55 185.804V187.082H201.75V197H200.431V187.784L200.516 187.424C200.482 187.22 200.459 187.01 200.448 186.794C200.436 186.578 200.431 186.338 200.431 186.074V184.616H201.339L201.75 185.804H203.55ZM197.963 185.678C198.408 185.678 198.819 185.768 199.197 185.948C199.574 186.128 199.911 186.38 200.208 186.704C200.505 187.028 200.745 187.406 200.928 187.838L200.859 189.728C200.505 188.864 200.088 188.192 199.608 187.712C199.128 187.232 198.591 186.992 197.997 186.992C197.551 186.992 197.191 187.124 196.917 187.388C196.643 187.64 196.506 188.018 196.506 188.522C196.506 189.002 196.689 189.398 197.054 189.71C197.431 190.01 198.031 190.178 198.854 190.214L198.734 191.6C197.98 191.552 197.357 191.39 196.866 191.114C196.386 190.838 196.032 190.478 195.803 190.034C195.575 189.578 195.46 189.056 195.46 188.468C195.46 187.832 195.58 187.31 195.82 186.902C196.06 186.482 196.369 186.176 196.746 185.984C197.134 185.78 197.54 185.678 197.963 185.678ZM193.095 185.678C193.575 185.678 194.026 185.78 194.449 185.984C194.883 186.188 195.237 186.512 195.512 186.956C195.786 187.4 195.923 187.982 195.923 188.702C195.923 189.194 195.809 189.662 195.58 190.106C195.352 190.55 194.998 190.91 194.518 191.186C194.049 191.462 193.444 191.6 192.701 191.6L192.598 190.214C193.181 190.202 193.638 190.118 193.969 189.962C194.301 189.794 194.535 189.584 194.672 189.332C194.809 189.08 194.878 188.828 194.878 188.576C194.878 188.084 194.729 187.7 194.432 187.424C194.135 187.136 193.684 186.992 193.078 186.992C192.872 186.992 192.667 187.01 192.461 187.046C192.267 187.07 192.033 187.118 191.758 187.19L191.621 185.84C191.907 185.78 192.158 185.738 192.375 185.714C192.604 185.69 192.844 185.678 193.095 185.678Z" fill="#0E8B40"/>
<path d="M216.764 191.6C215.964 191.6 215.296 191.378 214.759 190.934C214.233 190.478 213.827 189.878 213.542 189.134L213.747 189.098C213.668 189.482 213.536 189.866 213.353 190.25C213.182 190.634 212.948 190.958 212.651 191.222C212.365 191.474 212.005 191.6 211.571 191.6C211.24 191.6 210.925 191.54 210.628 191.42C210.343 191.288 210.051 191.072 209.754 190.772C209.469 190.46 209.16 190.034 208.829 189.494L209.874 188.846C210.205 189.434 210.474 189.812 210.68 189.98C210.897 190.148 211.131 190.232 211.382 190.232C211.657 190.232 211.896 190.136 212.102 189.944C212.319 189.752 212.491 189.428 212.616 188.972C212.742 188.516 212.816 187.886 212.839 187.082H214.022C214.113 187.526 214.233 187.946 214.382 188.342C214.53 188.726 214.713 189.068 214.93 189.368C215.159 189.668 215.421 189.902 215.718 190.07C216.027 190.238 216.381 190.322 216.781 190.322C217.181 190.322 217.484 190.214 217.689 189.998C217.906 189.77 218.015 189.452 218.015 189.044C218.015 188.588 217.895 188.156 217.655 187.748C217.427 187.328 217.147 186.962 216.815 186.65L218.186 186.362C218.369 186.53 218.546 186.752 218.718 187.028C218.901 187.292 219.049 187.598 219.163 187.946C219.278 188.282 219.335 188.648 219.335 189.044C219.335 189.848 219.106 190.478 218.649 190.934C218.192 191.378 217.564 191.6 216.764 191.6ZM225.145 185.804V187.082H223.345V197H222.026V195.65L222.06 194.894C222.048 194.606 222.037 194.318 222.026 194.03C222.026 193.73 222.026 193.43 222.026 193.13V187.082H208.023V185.804H225.145ZM218.135 192.842C218.124 192.458 218.026 192.158 217.844 191.942C217.672 191.714 217.449 191.528 217.175 191.384L218.392 190.754C218.575 190.874 218.741 191.03 218.889 191.222C219.049 191.414 219.175 191.648 219.266 191.924C219.358 192.2 219.403 192.53 219.403 192.914L218.135 192.842ZM218.529 192.77C219.123 192.77 219.66 192.89 220.14 193.13C220.632 193.37 221.089 193.7 221.511 194.12C221.934 194.54 222.34 195.026 222.728 195.578L222.283 196.784C221.928 196.268 221.557 195.806 221.169 195.398C220.792 194.978 220.397 194.648 219.986 194.408C219.575 194.156 219.135 194.03 218.666 194.03C218.415 194.03 218.215 194.096 218.066 194.228C217.918 194.348 217.844 194.51 217.844 194.714C217.844 194.954 217.924 195.146 218.084 195.29C218.244 195.422 218.478 195.548 218.786 195.668L218.186 196.91C217.661 196.694 217.244 196.4 216.935 196.028C216.627 195.656 216.473 195.218 216.473 194.714C216.473 194.078 216.678 193.598 217.09 193.274C217.501 192.938 217.981 192.77 218.529 192.77Z" fill="#0E8B40"/>
<path d="M229.695 185.804V187.082H227.896V197H226.576V188.558C226.439 188.15 226.233 187.802 225.959 187.514C225.696 187.226 225.354 187.082 224.931 187.082H224.794V185.804H225.051C225.325 185.804 225.611 185.9 225.908 186.092C226.205 186.272 226.445 186.554 226.628 186.938C226.616 186.878 226.605 186.74 226.593 186.524C226.582 186.308 226.576 186.122 226.576 185.966V184.616H227.502L227.879 185.804H229.695Z" fill="#0E8B40"/>
<path d="M239.407 185.804V187.082H232.465V193.31C232.465 193.838 232.494 194.21 232.551 194.426C232.608 194.642 232.677 194.798 232.757 194.894C232.962 195.146 233.277 195.272 233.699 195.272C234.145 195.272 234.568 195.158 234.968 194.93C235.368 194.702 235.716 194.42 236.013 194.084C236.345 193.712 236.596 193.316 236.767 192.896C236.95 192.476 237.041 192.05 237.041 191.618C237.041 191.234 236.95 190.946 236.767 190.754C236.584 190.55 236.282 190.448 235.859 190.448C235.722 190.448 235.573 190.46 235.413 190.484C235.253 190.508 235.099 190.538 234.951 190.574L234.762 189.296C234.979 189.236 235.202 189.188 235.43 189.152C235.67 189.116 235.922 189.098 236.185 189.098C236.607 189.098 236.984 189.182 237.316 189.35C237.647 189.518 237.904 189.782 238.087 190.142C238.281 190.502 238.378 190.97 238.378 191.546C238.378 192.254 238.213 192.944 237.881 193.616C237.55 194.276 237.133 194.834 236.63 195.29C236.207 195.674 235.745 195.986 235.242 196.226C234.751 196.454 234.208 196.568 233.614 196.568C233.191 196.568 232.825 196.502 232.517 196.37C232.22 196.238 231.974 196.07 231.78 195.866C231.597 195.638 231.443 195.362 231.317 195.038C231.203 194.714 231.146 194.222 231.146 193.562V187.082H229.346V185.804H239.407ZM236.287 185.804C236.276 185.312 236.162 184.958 235.945 184.742C235.739 184.526 235.396 184.418 234.916 184.418H233.305C232.563 184.418 231.986 184.364 231.574 184.256C231.174 184.148 230.832 183.98 230.546 183.752C230.237 183.512 230.003 183.206 229.843 182.834C229.695 182.45 229.62 182.018 229.62 181.538C229.62 181.382 229.626 181.232 229.638 181.088C229.66 180.932 229.683 180.764 229.706 180.584L230.974 180.674C230.952 180.806 230.934 180.926 230.923 181.034C230.912 181.13 230.906 181.238 230.906 181.358C230.906 181.622 230.929 181.856 230.974 182.06C231.031 182.264 231.117 182.432 231.231 182.564C231.391 182.756 231.62 182.9 231.917 182.996C232.225 183.08 232.66 183.122 233.22 183.122H234.556C235.162 183.122 235.642 183.17 235.996 183.266C236.35 183.362 236.653 183.536 236.904 183.788C237.099 183.98 237.247 184.244 237.35 184.58C237.453 184.904 237.51 185.312 237.521 185.804H236.287Z" fill="#0E8B40"/>
<path d="M234.889 184.274L240.476 180.494L241.127 181.52L235.66 185.408L234.889 184.274Z" fill="#0E8B40"/>
<path d="M248.792 185.804V187.082H246.993V197H245.673V187.082H243.891V185.804H245.467C245.285 185.576 245.096 185.336 244.902 185.084C244.719 184.832 244.553 184.58 244.405 184.328C244.793 183.62 245.21 182.978 245.656 182.402C246.102 181.814 246.627 181.352 247.233 181.016C247.838 180.668 248.57 180.494 249.427 180.494C250.032 180.494 250.609 180.572 251.158 180.728C251.717 180.884 252.266 181.112 252.803 181.412C253.34 181.7 253.883 182.054 254.431 182.474C254.98 182.882 255.551 183.338 256.145 183.842L255.425 184.814C254.637 184.142 253.923 183.584 253.283 183.14C252.654 182.696 252.049 182.366 251.466 182.15C250.895 181.922 250.283 181.808 249.632 181.808C249.004 181.808 248.455 181.922 247.987 182.15C247.53 182.378 247.13 182.696 246.787 183.104C246.456 183.512 246.153 183.986 245.879 184.526C245.97 184.706 246.096 184.904 246.256 185.12C246.416 185.336 246.599 185.564 246.804 185.804H248.792Z" fill="#0E8B40"/>
<path d="M258.504 185.804V187.082H251.562V187.622L251.494 188.756C251.517 188.912 251.534 189.128 251.545 189.404C251.557 189.68 251.562 189.944 251.562 190.196V193.31C251.562 193.838 251.591 194.21 251.648 194.426C251.705 194.642 251.774 194.798 251.854 194.894C252.059 195.146 252.374 195.272 252.796 195.272C253.253 195.272 253.676 195.158 254.065 194.93C254.453 194.702 254.802 194.42 255.11 194.084C255.43 193.724 255.676 193.346 255.847 192.95C256.03 192.542 256.121 192.116 256.121 191.672C256.121 191.276 256.013 191.018 255.796 190.898C255.59 190.778 255.299 190.718 254.922 190.718H254.836C254.31 190.718 253.888 190.676 253.568 190.592C253.248 190.496 252.939 190.37 252.642 190.214C252.379 190.058 252.134 189.878 251.905 189.674C251.688 189.458 251.511 189.218 251.374 188.954L251.545 187.388C251.785 187.82 252.037 188.186 252.299 188.486C252.562 188.774 252.888 188.996 253.276 189.152C253.676 189.308 254.185 189.386 254.802 189.386H255.076C255.51 189.386 255.841 189.416 256.07 189.476C256.31 189.536 256.521 189.626 256.704 189.746C256.967 189.914 257.161 190.148 257.287 190.448C257.412 190.736 257.475 191.084 257.475 191.492C257.475 192.224 257.31 192.926 256.978 193.598C256.647 194.27 256.23 194.834 255.727 195.29C255.293 195.686 254.83 195.998 254.339 196.226C253.848 196.454 253.299 196.568 252.694 196.568C252.271 196.568 251.911 196.502 251.614 196.37C251.317 196.238 251.071 196.07 250.877 195.866C250.694 195.638 250.54 195.362 250.414 195.038C250.3 194.714 250.243 194.222 250.243 193.562V187.082H248.443V185.804H258.504Z" fill="#0E8B40"/>
<path d="M263.069 185.804V187.082H261.27V197H259.95V187.082H258.167V185.804H259.744C259.561 185.576 259.373 185.336 259.179 185.084C258.996 184.832 258.83 184.58 258.682 184.328C259.07 183.62 259.487 182.978 259.933 182.402C260.378 181.814 260.904 181.352 261.51 181.016C262.115 180.668 262.846 180.494 263.703 180.494C264.309 180.494 264.886 180.572 265.434 180.728C265.994 180.884 266.543 181.112 267.08 181.412C267.617 181.7 268.159 182.054 268.708 182.474C269.256 182.882 269.828 183.338 270.422 183.842L269.702 184.814C268.913 184.142 268.199 183.584 267.56 183.14C266.931 182.696 266.326 182.366 265.743 182.15C265.171 181.922 264.56 181.808 263.909 181.808C263.281 181.808 262.732 181.922 262.264 182.15C261.807 182.378 261.407 182.696 261.064 183.104C260.733 183.512 260.43 183.986 260.156 184.526C260.247 184.706 260.373 184.904 260.533 185.12C260.693 185.336 260.875 185.564 261.081 185.804H263.069Z" fill="#0E8B40"/>
<path d="M276.894 185.804V187.082H271.324V197H270.004C269.673 196.292 269.21 195.626 268.616 195.002C268.022 194.378 267.342 193.856 266.576 193.436C265.822 193.004 265.028 192.734 264.194 192.626L263.525 190.898C264.634 190.226 265.742 189.626 266.85 189.098C267.959 188.57 269.136 188.102 270.381 187.694L270.004 188.45V187.082H262.72V185.804H276.894ZM270.004 188.594L270.364 189.116C269.781 189.284 269.176 189.506 268.547 189.782C267.93 190.058 267.325 190.346 266.73 190.646C266.148 190.946 265.611 191.24 265.119 191.528C265.759 191.66 266.416 191.912 267.09 192.284C267.776 192.656 268.399 193.112 268.958 193.652C269.53 194.18 269.953 194.756 270.227 195.38L270.09 195.416C270.067 195.14 270.044 194.864 270.021 194.588C270.01 194.312 270.004 193.982 270.004 193.598V188.594ZM275.934 191.816C275.934 192.212 275.86 192.59 275.711 192.95C275.563 193.298 275.317 193.586 274.974 193.814C274.631 194.042 274.174 194.156 273.603 194.156C273.42 194.156 273.243 194.15 273.072 194.138C272.912 194.126 272.752 194.102 272.592 194.066L272.695 192.77C272.763 192.782 272.843 192.794 272.935 192.806C273.037 192.806 273.152 192.806 273.277 192.806C273.826 192.806 274.18 192.698 274.34 192.482C274.511 192.254 274.597 191.984 274.597 191.672C274.597 191.036 274.3 190.496 273.706 190.052C273.123 189.596 272.255 189.284 271.101 189.116L271.152 187.766C272.032 187.862 272.832 188.096 273.552 188.468C274.271 188.828 274.848 189.296 275.283 189.872C275.717 190.436 275.934 191.084 275.934 191.816Z" fill="#0E8B40"/>
<path d="M281.481 185.678C282.178 185.678 282.743 185.798 283.177 186.038C283.623 186.278 283.949 186.59 284.154 186.974C284.36 187.358 284.463 187.778 284.463 188.234C284.463 189.038 284.234 189.662 283.777 190.106C283.32 190.55 282.652 190.772 281.772 190.772C281.315 190.772 280.852 190.706 280.384 190.574C279.915 190.43 279.487 190.25 279.098 190.034L279.544 188.828C279.898 189.02 280.252 189.176 280.607 189.296C280.961 189.404 281.315 189.458 281.669 189.458C281.989 189.458 282.258 189.416 282.475 189.332C282.692 189.236 282.852 189.104 282.955 188.936C283.069 188.756 283.126 188.534 283.126 188.27C283.126 187.886 282.989 187.574 282.715 187.334C282.441 187.082 282.035 186.956 281.498 186.956C280.949 186.956 280.481 187.064 280.093 187.28C279.704 187.496 279.401 187.784 279.184 188.144C278.978 188.504 278.876 188.912 278.876 189.368C278.876 189.86 278.973 190.298 279.167 190.682C279.373 191.054 279.727 191.42 280.23 191.78C280.744 192.128 281.464 192.518 282.389 192.95C283.12 193.286 283.714 193.598 284.172 193.886C284.64 194.174 285.011 194.468 285.286 194.768C285.56 195.056 285.76 195.374 285.885 195.722C286.023 196.058 286.12 196.454 286.177 196.91L284.943 197.18C284.874 196.832 284.783 196.538 284.669 196.298C284.566 196.046 284.406 195.812 284.189 195.596C283.972 195.38 283.663 195.158 283.263 194.93C282.863 194.69 282.332 194.42 281.669 194.12C280.721 193.676 279.944 193.232 279.338 192.788C278.733 192.332 278.287 191.828 278.002 191.276C277.716 190.712 277.573 190.064 277.573 189.332C277.573 188.672 277.727 188.066 278.036 187.514C278.356 186.962 278.807 186.518 279.39 186.182C279.973 185.846 280.67 185.678 281.481 185.678Z" fill="#0E8B40"/>
<path d="M297.581 185.804V187.082H295.781V197H294.461V190.646L294.856 191.78C294.501 191.288 294.193 190.91 293.93 190.646C293.679 190.382 293.433 190.25 293.193 190.25C293.033 190.25 292.885 190.298 292.748 190.394C292.611 190.49 292.456 190.676 292.285 190.952C292.113 191.216 291.885 191.624 291.599 192.176C291.291 192.764 291.011 193.25 290.76 193.634C290.508 194.006 290.24 194.282 289.954 194.462C289.68 194.63 289.343 194.714 288.943 194.714C288.634 194.714 288.337 194.648 288.052 194.516C287.777 194.384 287.497 194.168 287.212 193.868C286.938 193.556 286.64 193.136 286.321 192.608L287.366 191.942C287.675 192.518 287.932 192.896 288.137 193.076C288.343 193.256 288.566 193.346 288.806 193.346C289 193.346 289.183 193.286 289.354 193.166C289.537 193.034 289.731 192.812 289.937 192.5C290.154 192.188 290.4 191.762 290.674 191.222L291.068 190.628C291.365 189.98 291.651 189.536 291.925 189.296C292.199 189.044 292.502 188.918 292.833 188.918C293.21 188.918 293.547 189.032 293.845 189.26C294.153 189.476 294.507 189.812 294.907 190.268L294.564 190.286C294.519 190.01 294.49 189.752 294.479 189.512C294.467 189.26 294.461 189.008 294.461 188.756V187.082H285.549V185.804H297.581ZM290.365 192.122C290.251 191.306 290.131 190.658 290.005 190.178C289.891 189.698 289.685 189.326 289.388 189.062C289.103 188.786 288.714 188.582 288.223 188.45C287.732 188.306 287.115 188.186 286.372 188.09L286.629 186.722L287.555 187.082C288.206 187.19 288.749 187.328 289.183 187.496C289.617 187.664 289.965 187.886 290.228 188.162C290.502 188.426 290.708 188.756 290.845 189.152C290.982 189.548 291.074 190.028 291.119 190.592L290.365 192.122Z" fill="#0E8B40"/>
<path d="M302.134 185.804V187.082H300.334V197H299.014V188.558C298.877 188.15 298.671 187.802 298.397 187.514C298.134 187.226 297.792 187.082 297.369 187.082H297.232V185.804H297.489C297.763 185.804 298.049 185.9 298.346 186.092C298.643 186.272 298.883 186.554 299.066 186.938C299.054 186.878 299.043 186.74 299.031 186.524C299.02 186.308 299.014 186.122 299.014 185.966V184.616H299.94L300.317 185.804H302.134Z" fill="#0E8B40"/>
<path d="M312.877 185.804V187.082H312.535C312.18 187.166 311.798 187.352 311.386 187.64C310.975 187.916 310.587 188.282 310.221 188.738C309.855 189.182 309.552 189.704 309.313 190.304C309.084 190.904 308.97 191.564 308.97 192.284C308.97 193.148 309.09 193.838 309.33 194.354C309.581 194.858 309.89 195.218 310.255 195.434C310.621 195.65 310.986 195.758 311.352 195.758C311.638 195.758 311.878 195.728 312.072 195.668C312.266 195.608 312.489 195.5 312.74 195.344L313.34 196.442C313.043 196.682 312.717 196.85 312.363 196.946C312.009 197.042 311.649 197.09 311.283 197.09C310.564 197.09 309.93 196.892 309.381 196.496C308.833 196.1 308.398 195.548 308.079 194.84C307.77 194.12 307.616 193.28 307.616 192.32C307.616 191.396 307.753 190.574 308.027 189.854C308.313 189.122 308.678 188.486 309.124 187.946C309.581 187.406 310.072 186.962 310.598 186.614C311.124 186.254 311.632 185.984 312.123 185.804H312.877Z" fill="#0E8B40"/>
<path d="M324.561 185.804V187.082H322.761V197H321.442V190.646L321.836 191.78C321.482 191.288 321.173 190.91 320.91 190.646C320.659 190.382 320.413 190.25 320.173 190.25C320.013 190.25 319.865 190.298 319.728 190.394C319.591 190.49 319.436 190.676 319.265 190.952C319.094 191.216 318.865 191.624 318.58 192.176C318.271 192.764 317.991 193.25 317.74 193.634C317.488 194.006 317.22 194.282 316.934 194.462C316.66 194.63 316.323 194.714 315.923 194.714C315.614 194.714 315.317 194.648 315.032 194.516C314.758 194.384 314.478 194.168 314.192 193.868C313.918 193.556 313.621 193.136 313.301 192.608L314.346 191.942C314.655 192.518 314.912 192.896 315.117 193.076C315.323 193.256 315.546 193.346 315.786 193.346C315.98 193.346 316.163 193.286 316.334 193.166C316.517 193.034 316.711 192.812 316.917 192.5C317.134 192.188 317.38 191.762 317.654 191.222L318.048 190.628C318.345 189.98 318.631 189.536 318.905 189.296C319.179 189.044 319.482 188.918 319.813 188.918C320.191 188.918 320.528 189.032 320.825 189.26C321.133 189.476 321.487 189.812 321.887 190.268L321.545 190.286C321.499 190.01 321.47 189.752 321.459 189.512C321.447 189.26 321.442 189.008 321.442 188.756V187.082H312.53V185.804H324.561ZM317.346 192.122C317.231 191.306 317.111 190.658 316.986 190.178C316.871 189.698 316.666 189.326 316.369 189.062C316.083 188.786 315.694 188.582 315.203 188.45C314.712 188.306 314.095 188.186 313.352 188.09L313.609 186.722L314.535 187.082C315.186 187.19 315.729 187.328 316.163 187.496C316.597 187.664 316.946 187.886 317.208 188.162C317.483 188.426 317.688 188.756 317.825 189.152C317.963 189.548 318.054 190.028 318.1 190.592L317.346 192.122Z" fill="#0E8B40"/>
<path d="M334.769 185.804V187.082H332.97V197H331.65C331.307 196.28 330.833 195.62 330.228 195.02C329.634 194.408 328.948 193.892 328.171 193.472C327.394 193.052 326.566 192.77 325.686 192.626L325.018 190.898C326.114 190.202 327.246 189.572 328.411 189.008C329.588 188.444 330.799 187.964 332.044 187.568L331.65 188.324V187.082H324.212V185.804H334.769ZM331.65 188.468L332.01 188.972C331.142 189.272 330.228 189.644 329.268 190.088C328.308 190.52 327.423 191 326.611 191.528C327.228 191.672 327.885 191.918 328.582 192.266C329.279 192.614 329.925 193.052 330.519 193.58C331.113 194.108 331.57 194.72 331.89 195.416H331.736C331.713 195.14 331.69 194.864 331.667 194.588C331.656 194.312 331.65 193.982 331.65 193.598V188.468Z" fill="#0E8B40"/>
<path d="M339.323 185.804V187.082H337.524V197H336.204V188.558C336.067 188.15 335.861 187.802 335.587 187.514C335.324 187.226 334.981 187.082 334.559 187.082H334.422V185.804H334.679C334.953 185.804 335.239 185.9 335.536 186.092C335.833 186.272 336.073 186.554 336.255 186.938C336.244 186.878 336.233 186.74 336.221 186.524C336.21 186.308 336.204 186.122 336.204 185.966V184.616H337.13L337.507 185.804H339.323Z" fill="#0E8B40"/>
<path d="M354.352 185.804V187.082H352.552V197H351.233C350.89 196.28 350.416 195.62 349.81 195.02C349.216 194.408 348.53 193.892 347.753 193.472C346.977 193.052 346.148 192.77 345.268 192.626L344.6 190.898C345.697 190.202 346.828 189.572 347.993 189.008C349.17 188.444 350.381 187.964 351.627 187.568L351.233 188.324V187.082H343.794V185.804H354.352ZM351.233 188.468L351.593 188.972C350.724 189.272 349.81 189.644 348.85 190.088C347.891 190.52 347.005 191 346.194 191.528C346.811 191.672 347.468 191.918 348.165 192.266C348.862 192.614 349.507 193.052 350.101 193.58C350.696 194.108 351.153 194.72 351.473 195.416H351.318C351.295 195.14 351.273 194.864 351.25 194.588C351.238 194.312 351.233 193.982 351.233 193.598V188.468Z" fill="#0E8B40"/>
<path d="M358.717 185.804V187.082H357.517L358.546 186.686C358.077 187.082 357.723 187.442 357.483 187.766C357.243 188.078 357.083 188.396 357.003 188.72C356.923 189.044 356.883 189.434 356.883 189.89C356.883 190.286 356.929 190.706 357.02 191.15C357.112 191.594 357.203 192.056 357.295 192.536C357.398 193.004 357.449 193.496 357.449 194.012C357.449 194.444 357.403 194.864 357.312 195.272C357.22 195.668 357.049 196.04 356.798 196.388C356.558 196.724 356.209 197.024 355.752 197.288C355.307 197.552 354.724 197.768 354.004 197.936L353.644 196.694C354.375 196.514 354.912 196.292 355.255 196.028C355.609 195.752 355.838 195.44 355.941 195.092C356.055 194.744 356.112 194.372 356.112 193.976C356.112 193.496 356.066 193.028 355.975 192.572C355.884 192.116 355.786 191.666 355.684 191.222C355.592 190.778 355.547 190.346 355.547 189.926C355.547 189.47 355.587 189.074 355.666 188.738C355.746 188.39 355.884 188.06 356.078 187.748C356.272 187.424 356.535 187.076 356.866 186.704L357.123 187.082H354.004V185.804H358.717Z" fill="#0E8B40"/>
<path d="M368.93 185.804V187.082H367.13V197H365.811C365.468 196.28 364.994 195.62 364.388 195.02C363.794 194.408 363.108 193.892 362.331 193.472C361.555 193.052 360.726 192.77 359.846 192.626L359.178 190.898C360.275 190.202 361.406 189.572 362.571 189.008C363.748 188.444 364.959 187.964 366.205 187.568L365.811 188.324V187.082H358.372V185.804H368.93ZM365.811 188.468L366.171 188.972C365.302 189.272 364.388 189.644 363.428 190.088C362.469 190.52 361.583 191 360.772 191.528C361.389 191.672 362.046 191.918 362.743 192.266C363.44 192.614 364.085 193.052 364.679 193.58C365.274 194.108 365.731 194.72 366.051 195.416H365.896C365.873 195.14 365.851 194.864 365.828 194.588C365.816 194.312 365.811 193.982 365.811 193.598V188.468Z" fill="#0E8B40"/>
<path d="M377.323 191.51C376.523 191.51 375.855 191.306 375.318 190.898C374.792 190.49 374.386 189.902 374.101 189.134L374.306 189.098C374.226 189.482 374.095 189.866 373.912 190.25C373.741 190.634 373.507 190.958 373.21 191.222C372.924 191.474 372.564 191.6 372.13 191.6C371.798 191.6 371.484 191.54 371.187 191.42C370.901 191.288 370.61 191.072 370.313 190.772C370.027 190.46 369.719 190.034 369.388 189.494L370.433 188.846C370.764 189.434 371.033 189.812 371.239 189.98C371.456 190.148 371.69 190.232 371.941 190.232C372.215 190.232 372.455 190.136 372.661 189.944C372.878 189.752 373.05 189.428 373.175 188.972C373.301 188.516 373.375 187.886 373.398 187.082H374.581C374.672 187.526 374.792 187.946 374.941 188.342C375.089 188.726 375.272 189.068 375.489 189.368C375.717 189.668 375.98 189.902 376.277 190.07C376.586 190.238 376.94 190.322 377.34 190.322C377.74 190.322 378.043 190.214 378.248 189.998C378.465 189.77 378.574 189.452 378.574 189.044C378.574 188.588 378.454 188.156 378.214 187.748C377.986 187.328 377.706 186.962 377.374 186.65L378.745 186.362C378.928 186.53 379.105 186.752 379.277 187.028C379.459 187.292 379.608 187.598 379.722 187.946C379.836 188.282 379.894 188.648 379.894 189.044C379.894 189.884 379.665 190.508 379.208 190.916C378.751 191.312 378.123 191.51 377.323 191.51ZM381.282 185.804V187.082H368.582V185.804H381.282ZM376.552 191.258C377.169 191.258 377.694 191.342 378.128 191.51C378.563 191.678 378.911 191.9 379.174 192.176C379.437 192.44 379.625 192.728 379.739 193.04C379.865 193.352 379.928 193.658 379.928 193.958C379.928 194.366 379.854 194.726 379.705 195.038C379.568 195.35 379.357 195.62 379.071 195.848C378.797 196.064 378.465 196.244 378.077 196.388C377.688 196.52 377.243 196.616 376.74 196.676L376.792 196.226C377.226 196.334 377.666 196.478 378.111 196.658C378.557 196.838 379.002 197.042 379.448 197.27C379.905 197.51 380.356 197.78 380.802 198.08L380.185 199.106C379.637 198.722 379.1 198.386 378.574 198.098C378.048 197.822 377.517 197.582 376.98 197.378C376.454 197.174 375.912 197 375.352 196.856C374.792 196.7 374.204 196.568 373.587 196.46L373.809 195.2C374.186 195.32 374.546 195.41 374.889 195.47C375.232 195.518 375.615 195.542 376.037 195.542C376.974 195.542 377.637 195.404 378.026 195.128C378.414 194.84 378.608 194.456 378.608 193.976C378.608 193.472 378.431 193.088 378.077 192.824C377.734 192.548 377.277 192.41 376.706 192.41C376.215 192.41 375.866 192.5 375.66 192.68C375.455 192.848 375.352 193.088 375.352 193.4C375.352 193.496 375.363 193.598 375.386 193.706C375.409 193.802 375.432 193.886 375.455 193.958L374.204 194.228C374.158 194.06 374.112 193.88 374.066 193.688C374.032 193.496 374.015 193.322 374.015 193.166C374.015 192.758 374.118 192.416 374.324 192.14C374.541 191.852 374.838 191.636 375.215 191.492C375.603 191.336 376.049 191.258 376.552 191.258Z" fill="#0E8B40"/>
<path d="M385.836 185.804V187.082H384.036V197H382.716V188.558C382.579 188.15 382.374 187.802 382.099 187.514C381.837 187.226 381.494 187.082 381.071 187.082H380.934V185.804H381.191C381.465 185.804 381.751 185.9 382.048 186.092C382.345 186.272 382.585 186.554 382.768 186.938C382.756 186.878 382.745 186.74 382.734 186.524C382.722 186.308 382.716 186.122 382.716 185.966V184.616H383.642L384.019 185.804H385.836Z" fill="#0E8B40"/>
<path d="M398.101 185.804V187.082H396.301V197H394.981V189.872L395.358 191.024C394.89 190.304 394.462 189.692 394.073 189.188C393.685 188.672 393.313 188.252 392.959 187.928C392.616 187.604 392.268 187.37 391.914 187.226C391.559 187.07 391.177 186.992 390.765 186.992C390.308 186.992 389.891 187.082 389.514 187.262C389.148 187.442 388.811 187.682 388.503 187.982C388.194 188.282 387.909 188.606 387.646 188.954L387.509 188.99C387.692 188.87 387.869 188.78 388.04 188.72C388.223 188.66 388.423 188.63 388.64 188.63C389.303 188.63 389.788 188.822 390.097 189.206C390.405 189.578 390.56 190.04 390.56 190.592C390.56 190.724 390.554 190.85 390.542 190.97C390.531 191.09 390.514 191.18 390.491 191.24L390.2 191.132C390.337 190.976 390.468 190.826 390.594 190.682C390.72 190.538 390.851 190.394 390.988 190.25C391.137 190.106 391.285 189.956 391.434 189.8L393.559 187.712L394.399 188.666L389.531 193.49L388.52 192.5L389.925 191.096L389.308 191.87L388.794 192.284C388.966 192.08 389.109 191.864 389.223 191.636C389.348 191.396 389.411 191.126 389.411 190.826C389.411 190.526 389.326 190.286 389.154 190.106C388.983 189.926 388.731 189.836 388.4 189.836C388.217 189.836 388.04 189.86 387.869 189.908C387.697 189.956 387.52 190.04 387.337 190.16L386.035 188.864C386.492 188.228 386.96 187.676 387.44 187.208C387.92 186.728 388.423 186.356 388.949 186.092C389.474 185.816 390.04 185.678 390.645 185.678C391.285 185.678 391.862 185.804 392.376 186.056C392.89 186.308 393.387 186.686 393.867 187.19C394.347 187.682 394.85 188.306 395.376 189.062L395.067 188.972C395.033 188.684 395.01 188.372 394.999 188.036C394.987 187.7 394.981 187.34 394.981 186.956V184.616H395.89L396.284 185.804H398.101Z" fill="#0E8B40"/>
<path d="M408.449 185.804V187.082H406.65V197H405.33V192.626L405.604 193.634C405.227 193.082 404.816 192.584 404.37 192.14C403.925 191.696 403.468 191.342 402.999 191.078C402.531 190.814 402.074 190.682 401.628 190.682C401.205 190.682 400.845 190.802 400.548 191.042C400.263 191.27 400.12 191.612 400.12 192.068C400.12 192.428 400.24 192.74 400.48 193.004C400.72 193.256 401.091 193.484 401.594 193.688L400.943 194.966C400.246 194.666 399.697 194.264 399.297 193.76C398.909 193.244 398.715 192.662 398.715 192.014C398.715 191.426 398.846 190.94 399.109 190.556C399.383 190.16 399.726 189.866 400.137 189.674C400.56 189.482 400.988 189.386 401.422 189.386C402.017 189.386 402.559 189.494 403.051 189.71C403.542 189.926 403.999 190.22 404.422 190.592C404.856 190.964 405.267 191.396 405.656 191.888L405.416 191.96C405.382 191.684 405.359 191.414 405.347 191.15C405.336 190.874 405.33 190.598 405.33 190.322V187.082H397.755V185.804H408.449Z" fill="#0E8B40"/>
<path d="M413 185.804V187.082H411.2V197H409.881V188.558C409.744 188.15 409.538 187.802 409.264 187.514C409.001 187.226 408.658 187.082 408.235 187.082H408.098V185.804H408.355C408.63 185.804 408.915 185.9 409.212 186.092C409.509 186.272 409.749 186.554 409.932 186.938C409.921 186.878 409.909 186.74 409.898 186.524C409.886 186.308 409.881 186.122 409.881 185.966V184.616H410.806L411.183 185.804H413Z" fill="#0E8B40"/>
<path d="M177.512 166.616C176.4 166.616 175.448 166.344 174.656 165.8C173.863 165.256 173.269 164.552 172.873 163.688L173.239 163.64C173.117 164.12 172.919 164.592 172.645 165.056C172.37 165.504 172.005 165.88 171.548 166.184C171.106 166.472 170.558 166.616 169.902 166.616C169.445 166.616 168.996 166.544 168.554 166.4C168.128 166.256 167.709 165.984 167.297 165.584C166.886 165.168 166.459 164.568 166.018 163.784L168.12 162.416C168.455 163.008 168.737 163.392 168.966 163.568C169.194 163.744 169.445 163.832 169.72 163.832C170.04 163.832 170.314 163.736 170.542 163.544C170.786 163.352 170.976 163.016 171.114 162.536C171.251 162.056 171.327 161.376 171.342 160.496H174.267C174.343 160.992 174.458 161.456 174.61 161.888C174.777 162.304 174.983 162.672 175.227 162.992C175.471 163.312 175.745 163.56 176.05 163.736C176.369 163.896 176.72 163.976 177.101 163.976C177.512 163.976 177.824 163.856 178.038 163.616C178.251 163.36 178.358 163.008 178.358 162.56C178.358 162.048 178.205 161.568 177.901 161.12C177.596 160.656 177.223 160.256 176.781 159.92L179.866 159.512C180.11 159.752 180.346 160.056 180.574 160.424C180.818 160.776 181.016 161.184 181.168 161.648C181.336 162.112 181.42 162.616 181.42 163.16C181.42 164.232 181.077 165.08 180.391 165.704C179.706 166.312 178.746 166.616 177.512 166.616ZM189.395 158.072V160.712H187.201V173H184.185V171.2L184.23 169.952C184.215 169.552 184.2 169.16 184.185 168.776C184.185 168.376 184.185 167.976 184.185 167.576V160.712H165.446V158.072H189.395ZM178.655 168.032C178.563 167.52 178.388 167.064 178.129 166.664C177.87 166.264 177.565 165.936 177.215 165.68L179.911 164.984C180.094 165.16 180.292 165.4 180.506 165.704C180.719 165.992 180.902 166.328 181.054 166.712C181.206 167.096 181.283 167.528 181.283 168.008L178.655 168.032ZM179.409 167.36C180.384 167.36 181.222 167.528 181.922 167.864C182.638 168.2 183.286 168.672 183.865 169.28C184.459 169.888 185.068 170.608 185.693 171.44L184.185 172.832C183.819 172.352 183.4 171.88 182.928 171.416C182.456 170.936 181.968 170.544 181.465 170.24C180.963 169.92 180.468 169.76 179.98 169.76C179.721 169.76 179.523 169.816 179.386 169.928C179.249 170.04 179.18 170.192 179.18 170.384C179.18 170.56 179.226 170.72 179.317 170.864C179.424 171.008 179.622 171.144 179.911 171.272L178.723 173.36C178.038 173.088 177.436 172.68 176.918 172.136C176.415 171.592 176.164 170.88 176.164 170C176.164 169.2 176.476 168.56 177.101 168.08C177.741 167.6 178.51 167.36 179.409 167.36Z" fill="black"/>
<path d="M196.349 158.072V160.712H194.155V173H191.139V162.344C190.956 161.848 190.697 161.456 190.362 161.168C190.027 160.864 189.593 160.712 189.059 160.712H188.945V158.072H189.402C189.753 158.072 190.08 158.168 190.385 158.36C190.69 158.552 190.971 158.96 191.23 159.584C191.215 159.504 191.192 159.32 191.162 159.032C191.147 158.744 191.139 158.496 191.139 158.288V156.488H193.607L194.133 158.072H196.349Z" fill="black"/>
<path d="M209.894 158.072V160.712H200.981V167.744C200.981 168.288 201.012 168.688 201.073 168.944C201.134 169.2 201.225 169.392 201.347 169.52C201.56 169.76 201.911 169.88 202.398 169.88C202.81 169.88 203.206 169.792 203.587 169.616C203.967 169.424 204.356 169.128 204.752 168.728C205.087 168.408 205.346 168.064 205.529 167.696C205.712 167.328 205.803 166.952 205.803 166.568C205.803 166.264 205.712 166.016 205.529 165.824C205.346 165.632 205.049 165.536 204.638 165.536C204.44 165.536 204.257 165.544 204.089 165.56C203.937 165.576 203.792 165.6 203.655 165.632L203.244 163.04C203.579 162.96 203.914 162.896 204.249 162.848C204.584 162.8 204.973 162.776 205.415 162.776C206.222 162.776 206.87 162.92 207.357 163.208C207.845 163.496 208.203 163.88 208.431 164.36C208.66 164.84 208.774 165.384 208.774 165.992C208.774 166.872 208.599 167.696 208.248 168.464C207.898 169.216 207.433 169.896 206.854 170.504C206.245 171.128 205.544 171.624 204.752 171.992C203.96 172.344 203.114 172.52 202.215 172.52C201.393 172.52 200.753 172.44 200.296 172.28C199.839 172.12 199.45 171.888 199.13 171.584C198.811 171.296 198.536 170.872 198.308 170.312C198.079 169.752 197.965 168.888 197.965 167.72V160.712H195.886V158.072H209.894ZM204.798 158.072C204.782 157.576 204.661 157.224 204.432 157.016C204.204 156.792 203.8 156.68 203.221 156.68H201.507C200.349 156.68 199.405 156.568 198.673 156.344C197.957 156.104 197.394 155.744 196.982 155.264C196.693 154.928 196.48 154.536 196.343 154.088C196.221 153.624 196.16 153.096 196.16 152.504C196.16 152.264 196.167 152.048 196.183 151.856C196.198 151.648 196.228 151.4 196.274 151.112L199.13 151.304C199.115 151.448 199.1 151.576 199.085 151.688C199.085 151.8 199.085 151.904 199.085 152C199.085 152.336 199.115 152.64 199.176 152.912C199.252 153.168 199.374 153.384 199.542 153.56C199.709 153.72 199.923 153.84 200.182 153.92C200.441 154 200.86 154.04 201.438 154.04H203.244C204.143 154.04 204.851 154.112 205.369 154.256C205.902 154.4 206.352 154.656 206.717 155.024C207.007 155.328 207.228 155.728 207.38 156.224C207.548 156.704 207.639 157.32 207.654 158.072H204.798Z" fill="black"/>
<path d="M202.759 155.144L210.688 150.992L211.877 153.248L204.038 157.544L202.759 155.144Z" fill="black"/>
<path d="M220.959 161.36C222.36 161.36 223.473 161.584 224.295 162.032C225.133 162.464 225.735 163.016 226.1 163.688C226.466 164.36 226.649 165.048 226.649 165.752C226.649 167.064 226.253 168.072 225.461 168.776C224.684 169.464 223.579 169.928 222.147 170.168L221.622 169.184C222.383 169.392 223.137 169.648 223.884 169.952C224.63 170.256 225.369 170.616 226.1 171.032C226.847 171.448 227.578 171.92 228.294 172.448L226.695 174.68C225.979 174.136 225.217 173.632 224.409 173.168C223.617 172.704 222.772 172.288 221.873 171.92C220.989 171.536 220.06 171.2 219.085 170.912C218.11 170.624 217.082 170.392 216 170.216L216.503 167.696C217.036 167.84 217.554 167.952 218.057 168.032C218.575 168.112 219.093 168.152 219.611 168.152C220.586 168.152 221.363 168.056 221.941 167.864C222.52 167.656 222.939 167.376 223.198 167.024C223.473 166.672 223.61 166.256 223.61 165.776C223.61 165.2 223.396 164.736 222.97 164.384C222.558 164.032 221.972 163.856 221.21 163.856C220.768 163.856 220.41 163.896 220.136 163.976C219.877 164.056 219.687 164.184 219.565 164.36C219.458 164.52 219.405 164.72 219.405 164.96C219.405 165.04 219.42 165.136 219.451 165.248C219.481 165.36 219.512 165.456 219.542 165.536L216.708 165.968C216.617 165.728 216.541 165.456 216.48 165.152C216.419 164.832 216.389 164.536 216.389 164.264C216.389 163.688 216.571 163.184 216.937 162.752C217.303 162.304 217.828 161.96 218.514 161.72C219.199 161.48 220.014 161.36 220.959 161.36ZM218.262 162.728C218.186 162.2 217.958 161.744 217.577 161.36C217.196 160.976 216.648 160.696 215.931 160.52L217.668 159.464L218.719 159.728C219.573 160.096 220.19 160.504 220.57 160.952C220.951 161.4 221.172 161.968 221.233 162.656L218.262 162.728ZM228.271 158.072V160.712H214.72V158.072H228.271Z" fill="black"/>
<path d="M235.224 158.072V160.712H233.03V173H230.014V162.344C229.831 161.848 229.572 161.456 229.237 161.168C228.902 160.864 228.467 160.712 227.934 160.712H227.82V158.072H228.277C228.627 158.072 228.955 158.168 229.26 158.36C229.564 158.552 229.846 158.96 230.105 159.584C230.09 159.504 230.067 159.32 230.037 159.032C230.021 158.744 230.014 158.496 230.014 158.288V156.488H232.482L233.007 158.072H235.224Z" fill="black"/>
<path d="M251.396 158.072V160.712H249.202V173H246.186V165.416L246.757 166.448C246.453 166.048 246.171 165.744 245.912 165.536C245.668 165.312 245.432 165.2 245.203 165.2C245.021 165.2 244.853 165.256 244.701 165.368C244.548 165.48 244.366 165.704 244.152 166.04C243.939 166.376 243.627 166.888 243.215 167.576C242.789 168.28 242.385 168.856 242.004 169.304C241.623 169.736 241.227 170.048 240.816 170.24C240.42 170.432 239.955 170.528 239.422 170.528C238.965 170.528 238.523 170.448 238.097 170.288C237.67 170.128 237.251 169.848 236.84 169.448C236.444 169.032 236.04 168.448 235.629 167.696L237.731 166.328C238.036 166.84 238.295 167.208 238.508 167.432C238.721 167.64 238.973 167.744 239.262 167.744C239.46 167.744 239.643 167.696 239.81 167.6C239.993 167.504 240.199 167.288 240.427 166.952C240.671 166.6 240.976 166.056 241.342 165.32L241.913 164.696C242.324 163.896 242.713 163.336 243.078 163.016C243.444 162.696 243.893 162.536 244.426 162.536C244.838 162.536 245.203 162.64 245.523 162.848C245.859 163.04 246.232 163.344 246.643 163.76L246.277 163.856C246.262 163.552 246.239 163.24 246.209 162.92C246.194 162.584 246.186 162.256 246.186 161.936V160.712H234.76V158.072H251.396ZM240.519 167.096C240.382 166.104 240.237 165.32 240.085 164.744C239.932 164.152 239.681 163.696 239.331 163.376C238.965 163.04 238.477 162.792 237.868 162.632C237.259 162.456 236.489 162.312 235.56 162.2L236.406 159.44L238.028 160.304C238.896 160.464 239.597 160.656 240.13 160.88C240.664 161.104 241.083 161.392 241.387 161.744C241.692 162.08 241.913 162.512 242.05 163.04C242.187 163.552 242.286 164.184 242.347 164.936L240.519 167.096Z" fill="black"/>
<path d="M268.878 158.072V160.712H266.684V173H263.668V163.592L263.805 164.816C263.333 164.144 262.86 163.544 262.388 163.016C261.916 162.488 261.444 162.04 260.971 161.672C260.499 161.304 260.019 161.024 259.532 160.832C259.044 160.64 258.549 160.544 258.046 160.544C257.437 160.544 256.881 160.664 256.378 160.904C255.891 161.144 255.434 161.472 255.007 161.888C254.596 162.304 254.177 162.792 253.75 163.352L253.682 162.8C253.986 162.592 254.314 162.408 254.664 162.248C255.03 162.072 255.456 161.984 255.944 161.984C256.706 161.984 257.254 162.208 257.589 162.656C257.94 163.088 258.115 163.576 258.115 164.12C258.115 164.376 258.107 164.616 258.092 164.84C258.092 165.064 258.077 165.216 258.046 165.296L257.338 165.08C257.49 164.888 257.665 164.688 257.863 164.48C258.077 164.256 258.298 164.032 258.526 163.808C258.755 163.584 258.976 163.376 259.189 163.184L261.931 160.688L263.736 162.584L256.972 169.04L254.893 167L257.041 164.936L256.172 166.16L255.236 166.736C255.495 166.464 255.693 166.184 255.83 165.896C255.967 165.608 256.035 165.336 256.035 165.08C256.035 164.696 255.936 164.424 255.738 164.264C255.54 164.088 255.289 164 254.984 164C254.786 164 254.58 164.04 254.367 164.12C254.169 164.184 253.956 164.288 253.727 164.432L251.465 162.248C252.166 161.336 252.844 160.56 253.499 159.92C254.154 159.264 254.839 158.768 255.555 158.432C256.271 158.08 257.071 157.904 257.955 157.904C258.732 157.904 259.44 158.04 260.08 158.312C260.72 158.584 261.345 158.976 261.954 159.488C262.579 160 263.226 160.616 263.896 161.336L263.805 161.84C263.774 161.52 263.744 161.152 263.714 160.736C263.683 160.32 263.668 159.912 263.668 159.512V156.488H266.136L266.661 158.072H268.878Z" fill="black"/>
<path d="M275.817 158.072V160.712H273.623V173H270.607V162.344C270.424 161.848 270.165 161.456 269.83 161.168C269.495 160.864 269.06 160.712 268.527 160.712H268.413V158.072H268.87C269.22 158.072 269.548 158.168 269.853 158.36C270.157 158.552 270.439 158.96 270.698 159.584C270.683 159.504 270.66 159.32 270.63 159.032C270.614 158.744 270.607 158.496 270.607 158.288V156.488H273.075L273.6 158.072H275.817Z" fill="black"/>
<path d="M285.408 172.208C283.976 172.208 282.658 171.92 281.455 171.344C280.266 170.752 279.208 169.768 278.278 168.392C277.364 167 276.587 165.112 275.947 162.728L278.804 161.888C279.276 163.616 279.794 165.04 280.358 166.16C280.937 167.28 281.607 168.112 282.369 168.656C283.13 169.184 284.022 169.448 285.042 169.448C285.637 169.448 286.147 169.392 286.573 169.28C287.015 169.152 287.373 168.968 287.647 168.728C287.937 168.488 288.15 168.192 288.287 167.84C288.424 167.472 288.493 167.056 288.493 166.592C288.493 166.048 288.394 165.6 288.196 165.248C288.013 164.88 287.769 164.608 287.465 164.432C287.16 164.24 286.832 164.144 286.482 164.144C286.132 164.144 285.835 164.24 285.591 164.432C285.362 164.624 285.248 164.912 285.248 165.296C285.248 165.472 285.263 165.648 285.294 165.824C285.324 166 285.37 166.168 285.431 166.328L282.574 166.784C282.422 166.416 282.315 166.072 282.254 165.752C282.194 165.432 282.163 165.152 282.163 164.912C282.163 164.112 282.353 163.472 282.734 162.992C283.115 162.496 283.61 162.136 284.22 161.912C284.844 161.688 285.507 161.576 286.208 161.576C287.35 161.576 288.318 161.808 289.11 162.272C289.902 162.736 290.504 163.368 290.915 164.168C291.327 164.952 291.532 165.856 291.532 166.88C291.532 167.824 291.319 168.704 290.892 169.52C290.481 170.336 289.826 170.992 288.927 171.488C288.028 171.968 286.855 172.208 285.408 172.208ZM292.538 158.072V160.712H275.353V158.072H292.538Z" fill="black"/>
<path d="M299.494 158.072V160.712H297.301V173H294.284V162.344C294.101 161.848 293.842 161.456 293.507 161.168C293.172 160.864 292.738 160.712 292.205 160.712H292.09V158.072H292.547C292.898 158.072 293.225 158.168 293.53 158.36C293.835 158.552 294.117 158.96 294.375 159.584C294.36 159.504 294.337 159.32 294.307 159.032C294.292 158.744 294.284 158.496 294.284 158.288V156.488H296.752L297.278 158.072H299.494Z" fill="black"/>
<path d="M317.221 158.072V160.712H315.027V173H312.01V165.44L312.627 166.808C312.384 166.344 312.094 165.944 311.759 165.608C311.424 165.272 311.043 165.104 310.616 165.104C310.464 165.104 310.289 165.144 310.091 165.224C309.908 165.304 309.748 165.456 309.611 165.68C309.489 165.904 309.428 166.232 309.428 166.664C309.428 166.808 309.436 166.944 309.451 167.072C309.466 167.184 309.481 167.304 309.497 167.432L306.914 167.6C306.838 167.072 306.686 166.616 306.457 166.232C306.244 165.832 305.97 165.528 305.635 165.32C305.3 165.112 304.896 165.008 304.424 165.008C304.149 165.008 303.906 165.064 303.692 165.176C303.479 165.272 303.312 165.416 303.19 165.608C303.083 165.8 303.03 166.024 303.03 166.28C303.03 166.856 303.243 167.304 303.67 167.624C304.111 167.944 304.645 168.208 305.269 168.416L304.401 171.104C303.487 170.832 302.695 170.472 302.024 170.024C301.354 169.56 300.836 169.008 300.47 168.368C300.105 167.728 299.922 166.992 299.922 166.16C299.922 165.36 300.105 164.672 300.47 164.096C300.851 163.52 301.354 163.08 301.979 162.776C302.603 162.456 303.289 162.296 304.035 162.296C304.934 162.296 305.688 162.456 306.297 162.776C306.907 163.08 307.539 163.584 308.194 164.288L307.783 164.12C307.95 163.56 308.247 163.136 308.674 162.848C309.101 162.56 309.55 162.416 310.022 162.416C310.556 162.416 311.028 162.528 311.439 162.752C311.866 162.976 312.262 163.28 312.627 163.664L312.125 164.048C312.094 163.696 312.064 163.344 312.033 162.992C312.018 162.64 312.01 162.288 312.01 161.936V160.712H299.031V158.072H317.221Z" fill="black"/>
<path d="M331.636 158.072V160.712H330.333C329.815 160.984 329.312 161.32 328.825 161.72C328.353 162.104 327.926 162.552 327.545 163.064C327.18 163.56 326.883 164.112 326.654 164.72C326.441 165.328 326.334 165.984 326.334 166.688C326.334 167.648 326.471 168.4 326.745 168.944C327.02 169.488 327.362 169.872 327.774 170.096C328.185 170.304 328.596 170.408 329.008 170.408C329.282 170.408 329.549 170.384 329.808 170.336C330.067 170.272 330.364 170.152 330.699 169.976L331.841 172.352C331.339 172.656 330.844 172.864 330.356 172.976C329.869 173.072 329.358 173.12 328.825 173.12C327.698 173.12 326.715 172.88 325.877 172.4C325.039 171.904 324.392 171.184 323.935 170.24C323.493 169.28 323.272 168.12 323.272 166.76C323.272 165.784 323.417 164.856 323.706 163.976C323.996 163.08 324.392 162.256 324.894 161.504C325.412 160.752 326.014 160.088 326.7 159.512C327.385 158.92 328.124 158.44 328.916 158.072H331.636Z" fill="black"/>
<path d="M347.824 158.072V160.712H345.63V173H342.614V165.416L343.185 166.448C342.881 166.048 342.599 165.744 342.34 165.536C342.096 165.312 341.86 165.2 341.631 165.2C341.449 165.2 341.281 165.256 341.129 165.368C340.976 165.48 340.793 165.704 340.58 166.04C340.367 166.376 340.055 166.888 339.643 167.576C339.217 168.28 338.813 168.856 338.432 169.304C338.051 169.736 337.655 170.048 337.244 170.24C336.848 170.432 336.383 170.528 335.85 170.528C335.393 170.528 334.951 170.448 334.525 170.288C334.098 170.128 333.679 169.848 333.268 169.448C332.872 169.032 332.468 168.448 332.057 167.696L334.159 166.328C334.464 166.84 334.723 167.208 334.936 167.432C335.149 167.64 335.4 167.744 335.69 167.744C335.888 167.744 336.071 167.696 336.238 167.6C336.421 167.504 336.627 167.288 336.855 166.952C337.099 166.6 337.404 166.056 337.769 165.32L338.341 164.696C338.752 163.896 339.141 163.336 339.506 163.016C339.872 162.696 340.321 162.536 340.854 162.536C341.266 162.536 341.631 162.64 341.951 162.848C342.286 163.04 342.66 163.344 343.071 163.76L342.705 163.856C342.69 163.552 342.667 163.24 342.637 162.92C342.622 162.584 342.614 162.256 342.614 161.936V160.712H331.188V158.072H347.824ZM336.947 167.096C336.81 166.104 336.665 165.32 336.513 164.744C336.36 164.152 336.109 163.696 335.759 163.376C335.393 163.04 334.905 162.792 334.296 162.632C333.687 162.456 332.917 162.312 331.988 162.2L332.833 159.44L334.456 160.304C335.324 160.464 336.025 160.656 336.558 160.88C337.092 161.104 337.51 161.392 337.815 161.744C338.12 162.08 338.341 162.512 338.478 163.04C338.615 163.552 338.714 164.184 338.775 164.936L336.947 167.096Z" fill="black"/>
<path d="M362.198 158.072V160.712H360.004V173H356.988C356.424 172.136 355.739 171.376 354.931 170.72C354.139 170.064 353.255 169.52 352.28 169.088C351.305 168.64 350.247 168.32 349.104 168.128L347.961 165.296C349.363 164.48 350.894 163.696 352.555 162.944C354.23 162.176 355.876 161.568 357.491 161.12L357.079 161.912V160.712H347.367V158.072H362.198ZM356.988 163.424L357.468 163.952C356.462 164.256 355.51 164.608 354.611 165.008C353.728 165.392 352.791 165.832 351.801 166.328C352.425 166.456 353.073 166.68 353.743 167C354.429 167.304 355.091 167.704 355.731 168.2C356.386 168.696 356.973 169.272 357.491 169.928L357.056 170.192C357.041 169.824 357.026 169.456 357.011 169.088C356.996 168.72 356.988 168.36 356.988 168.008V163.424Z" fill="black"/>
<path d="M369.143 158.072V160.712H366.949V173H363.933V162.344C363.75 161.848 363.491 161.456 363.156 161.168C362.821 160.864 362.386 160.712 361.853 160.712H361.739V158.072H362.196C362.546 158.072 362.874 158.168 363.179 158.36C363.483 158.552 363.765 158.96 364.024 159.584C364.009 159.504 363.986 159.32 363.956 159.032C363.94 158.744 363.933 158.496 363.933 158.288V156.488H366.401L366.926 158.072H369.143Z" fill="black"/>
</svg>
